Hanif_Deep_5_0_grf.mot
version=1
nRows=26
nColumns=19
inDegrees=yes
endheader
time	right_ground_force_vx	right_ground_force_vy	right_ground_force_vz	right_ground_force_px	right_ground_force_py	right_ground_force_pz	right_ground_torque_x	right_ground_torque_y	right_ground_torque_z	left_ground_force_vx	left_ground_force_vy	left_ground_force_vz	left_ground_force_px	left_ground_force_py	left_ground_force_pz	left_ground_torque_x	left_ground_torque_y	left_ground_torque_z
4.050000	-9.135860	292.043000	-22.547800	0.196554	0.000000	-1.436140	-20.639400	6.847110	-1.590370	4.309280	314.833000	17.079600	0.222464	0.000000	-0.980372	24.230900	-10.102500	6.563380
4.055000	-8.870720	291.968000	-22.121800	0.195786	0.000000	-1.436740	-20.452700	6.883390	-1.805500	4.611630	312.683000	17.160100	0.222339	0.000000	-0.979779	23.869500	-10.098000	6.471310
4.060000	-8.786830	289.845000	-22.088400	0.195691	0.000000	-1.436620	-20.338800	6.883080	-1.827140	4.771630	311.047000	17.109000	0.222253	0.000000	-0.980330	23.909800	-10.104700	6.407060
4.065000	-9.064920	287.991000	-21.841900	0.195478	0.000000	-1.436300	-20.310400	6.778600	-1.871910	4.328510	310.112000	16.982600	0.222342	0.000000	-0.980595	23.932500	-10.065300	6.416360
4.070000	-8.361850	286.244000	-21.673900	0.195501	0.000000	-1.436160	-20.207400	6.719110	-1.848220	4.133060	307.668000	16.869200	0.221734	0.000000	-0.980634	23.759100	-10.095500	6.171020
4.075000	-8.554540	285.338000	-22.006500	0.195652	0.000000	-1.436300	-20.110300	6.740590	-1.813910	4.307550	306.672000	17.388800	0.221761	0.000000	-0.980261	23.563500	-9.992020	6.147270
4.080000	-8.803690	285.261000	-21.812800	0.194439	0.000000	-1.437520	-19.764700	6.718110	-2.155560	4.208680	306.930000	17.330800	0.221726	0.000000	-0.980330	23.608100	-9.953070	6.146100
4.085000	-8.806300	283.871000	-21.669400	0.195044	0.000000	-1.436430	-19.978100	6.631460	-1.968110	3.841570	306.185000	17.305800	0.221687	0.000000	-0.980560	23.631500	-9.943920	6.116270
4.090000	-8.895350	280.616000	-21.431300	0.194704	0.000000	-1.436060	-19.858600	6.569250	-2.043930	3.823750	304.520000	17.303800	0.221835	0.000000	-0.980563	23.503800	-9.874500	6.126260
4.095000	-8.778040	280.246000	-21.458900	0.194684	0.000000	-1.436390	-19.738700	6.599820	-2.050640	3.560920	304.472000	17.422300	0.222210	0.000000	-0.980035	23.347800	-9.827620	6.237820
4.100000	-8.614930	280.727000	-21.451000	0.194317	0.000000	-1.436780	-19.653500	6.524240	-2.148860	3.057980	302.710000	17.813000	0.221840	0.000000	-0.979971	23.207100	-9.823600	6.069880
4.105000	-8.781760	276.952000	-21.379300	0.194323	0.000000	-1.436150	-19.576400	6.542970	-2.134070	3.025750	302.236000	17.884400	0.221552	0.000000	-0.979971	23.170900	-9.852780	5.967470
4.110000	-8.857930	279.190000	-21.900400	0.194271	0.000000	-1.437130	-19.454800	6.459770	-2.163940	3.008720	301.881000	17.753200	0.221428	0.000000	-0.980426	23.281500	-9.829300	5.926800
4.115000	-9.112990	276.576000	-22.033200	0.194206	0.000000	-1.435960	-19.605400	6.356100	-2.169720	2.888200	301.999000	17.483600	0.221922	0.000000	-0.980218	23.232300	-9.746360	6.091340
4.120000	-9.268310	276.901000	-21.820300	0.194815	0.000000	-1.436380	-19.516900	6.370750	-1.997460	2.670170	301.151000	17.897100	0.222049	0.000000	-0.980407	23.229900	-9.753750	6.096120
4.125000	-9.795490	275.440000	-21.618500	0.194492	0.000000	-1.436260	-19.460200	6.254080	-2.071040	2.559800	301.968000	17.786300	0.221664	0.000000	-0.979547	23.037000	-9.730830	6.002820
4.130000	-9.323150	275.933000	-21.578600	0.193877	0.000000	-1.437170	-19.230000	6.272960	-2.240730	2.724300	298.362000	17.451400	0.222244	0.000000	-0.981002	23.189700	-9.710410	6.103970
4.135000	-9.374370	275.110000	-21.549200	0.194282	0.000000	-1.435850	-19.534100	6.149280	-2.115780	2.775350	300.119000	17.280500	0.221969	0.000000	-0.980034	23.035200	-9.708570	6.068430
4.140000	-9.336800	274.685000	-21.596500	0.194666	0.000000	-1.436690	-19.277300	6.224580	-2.014440	2.788720	299.910000	17.578900	0.222183	0.000000	-0.980786	23.243900	-9.728690	6.118290
4.145000	-9.832910	273.280000	-21.241300	0.194204	0.000000	-1.436250	-19.311000	6.156060	-2.125330	2.629380	299.641000	17.634600	0.222276	0.000000	-0.979791	22.929600	-9.715470	6.138080
4.150000	-9.742850	272.722000	-21.452800	0.194295	0.000000	-1.435710	-19.413500	6.040610	-2.094610	2.964340	298.679000	17.736400	0.222159	0.000000	-0.980294	22.995800	-9.717730	6.078260
4.155000	-9.900150	272.219000	-21.471200	0.194790	0.000000	-1.436390	-19.194800	5.965230	-1.952050	2.647380	298.392000	17.276500	0.221902	0.000000	-0.980615	23.078300	-9.745050	6.005120
4.160000	-10.081800	271.932000	-21.181000	0.194415	0.000000	-1.436150	-19.244200	5.946250	-2.046040	2.567520	298.472000	17.349800	0.221850	0.000000	-0.979382	22.719000	-9.750690	5.988340
4.165000	-10.220800	271.541000	-20.868900	0.194216	0.000000	-1.436770	-19.053000	5.952420	-2.091830	2.429210	297.420000	17.313900	0.221698	0.000000	-0.979078	22.552000	-9.755490	5.918230
4.170000	-10.295300	268.289000	-21.051800	0.194138	0.000000	-1.437050	-18.753900	5.790310	-2.092400	2.128800	296.851000	17.159800	0.221830	0.000000	-0.980112	22.824200	-9.805990	5.944440
4.175000	-10.266800	268.819000	-20.664400	0.194872	0.000000	-1.437300	-18.719100	5.791850	-1.885980	2.526100	296.310000	16.692100	0.221932	0.000000	-0.980613	22.919300	-9.752770	5.981000
